<!-- <svg version="1.1" id="Layer_1" xmlns="http://www.w3.org/2000/svg" xmlns:xlink="http://www.w3.org/1999/xlink" x="0px" y="0px" viewBox="0 0 122.88 101.57" style="enable-background:new 0 0 122.88 101.57" xml:space="preserve"><g><path fill="#0aa8a7" d="M44.97,12.84h-17.2L0,49.37L27.77,85.9h17.2L17.2,49.37L44.97,12.84L44.97,12.84z M77.91,12.84h17.2l27.77,36.53 L95.11,85.9h-17.2l27.77-36.53L77.91,12.84L77.91,12.84z M70.17,0.04l5.96,1.39c0.94,0.22,1.52,1.16,1.31,2.1l-22.5,96.69 c-0.22,0.93-1.16,1.52-2.1,1.31l-5.95-1.39c-0.94-0.22-1.52-1.16-1.31-2.1l22.5-96.69C68.3,0.42,69.24-0.17,70.17,0.04L70.17,0.04 L70.17,0.04z"/></g></svg> -->

<svg id="Layer_1" xmlns="http://www.w3.org/2000/svg" viewBox="0 0 24 24"><title>calendar-multiple-check</title><path fill="#0aa8a7" d="M21,17V8H7V17H21M21,3A2,2 0 0,1 23,5V17A2,2 0 0,1 21,19H7C5.89,19 5,18.1 5,17V5A2,2 0 0,1 7,3H8V1H10V3H18V1H20V3H21M17.53,11.06L13.09,15.5L10.41,12.82L11.47,11.76L13.09,13.38L16.47,10L17.53,11.06M3,21H17V23H3C1.89,23 1,22.1 1,21V9H3V21Z" /></svg>
