<!-- <svg version="1.1" id="Layer_1" xmlns="http://www.w3.org/2000/svg" xmlns:xlink="http://www.w3.org/1999/xlink" x="0px" y="0px"
	 viewBox="0 0 503.876 503.876" style="enable-background:new 0 0 503.876 503.876;" xml:space="preserve">
		<path fill="#0aa8a7" d="M469.361,71.689c-32.071-35.681-70.026-54.532-109.761-54.532c-44.309,0-84.27,27.01-107.654,71.638
			c-23.334-44.628-62.993-71.638-106.857-71.638c-39.743,0-76.649,18.331-109.719,54.482
			C-3.392,114.042-25.273,210.34,50.889,282.356c35.143,33.221,193.779,200.074,195.374,201.753c1.586,1.662,3.785,2.61,6.077,2.61
			h0.008c2.291,0,4.482-0.94,6.068-2.594c1.603-1.679,160.667-168.163,195.458-201.837
			C528.576,209.962,507.274,113.866,469.361,71.689z"/>
</svg> -->

<svg xmlns="http://www.w3.org/2000/svg" viewBox="0 0 24 24"><title>receipt-text-outline</title><path fill="#0aa8a7" d="M19.5 3.5L18 2L16.5 3.5L15 2L13.5 3.5L12 2L10.5 3.5L9 2L7.5 3.5L6 2L4.5 3.5L3 2V22L4.5 20.5L6 22L7.5 20.5L9 22L10.5 20.5L12 22L13.5 20.5L15 22L16.5 20.5L18 22L19.5 20.5L21 22V2L19.5 3.5M19 19H5V5H19V19M6 15H18V17H6M6 11H18V13H6M6 7H18V9H6V7Z" /></svg>